<svg xmlns="http://www.w3.org/2000/svg" viewBox="0 0 668.60 111.12" role="img" aria-label="DTECH MED"><title>DTECH MED</title><g transform="translate(-78.85 347.88) scale(1 -1)" fill="currentColor" fill-rule="evenodd"><path d="M 535.01 315.18 L 535.08 315.11 C 535.08 315.11 534.98 315.15 535.01 315.18 Z M 444.05 248.22 L 466.61 248.22 L 470.02 264.73 C 470.64 267.37 471.18 270.25 471.75 273.08 L 476.95 298.11 C 477.28 299.73 480.29 313.65 480.29 314.94 L 480.53 314.94 C 480.53 312.44 480.80 309.13 481.00 306.76 C 481.22 304.03 480.95 300.85 481.31 298.20 C 481.49 296.88 481.43 295.66 481.48 294.05 C 481.52 292.66 481.73 291.71 481.72 289.97 L 482.44 277.48 C 482.56 276.03 482.37 274.77 482.59 273.32 L 483.41 256.62 C 483.39 253.95 483.68 250.73 483.89 248.22 L 502.14 248.21 C 504.87 248.17 503.80 247.91 505.73 251.82 L 535.01 314.70 L 522.19 252.40 C 521.90 251.11 521.43 249.47 521.33 248.22 L 543.89 248.22 L 561.07 331.35 C 561.42 332.85 562.13 335.51 562.13 337.02 L 526.13 337.02 C 525.95 336.27 525.71 335.95 525.41 335.34 L 515.40 313.67 C 515.13 313.03 514.88 312.61 514.61 312.06 L 508.37 298.62 C 508.06 297.99 507.90 297.48 507.57 296.78 L 502.13 285.18 C 501.52 283.92 501.83 283.93 501.17 283.50 L 500.70 293.35 C 500.61 294.49 500.77 295.78 500.68 296.92 C 500.34 301.03 499.98 306.09 499.98 310.39 L 498.53 337.02 L 462.29 337.02 C 462.29 335.47 460.58 328.06 460.15 325.95 C 455.30 301.91 449.94 277.74 445.19 253.80 C 444.88 252.23 444.19 249.86 444.05 248.22 M 682.61 268.62 L 690.15 304.76 C 690.97 308.86 691.77 312.91 692.69 316.86 C 699.04 316.86 710.01 317.91 713.80 311.33 C 718.37 303.43 712.66 282.75 708.53 276.53 C 702.89 268.03 696.15 268.62 682.61 268.62 Z M 650.93 248.22 C 663.25 248.22 675.57 248.22 687.89 248.22 C 694.18 248.22 699.76 248.67 704.74 249.85 C 711.09 251.35 712.65 251.67 718.36 254.95 L 722.35 257.67 C 722.91 258.10 723.10 258.40 723.61 258.81 C 726.39 261.05 725.26 260.20 727.18 262.20 C 727.63 262.66 727.94 262.95 728.39 263.40 C 729.22 264.21 729.77 264.90 730.51 265.84 L 734.31 271.16 C 738.77 277.91 743.33 295.59 743.33 304.14 C 743.33 308.24 743.45 310.99 742.67 315.00 C 741.89 319.01 740.78 322.17 738.49 325.69 C 733.08 333.97 722.23 337.02 712.37 337.02 L 669.89 337.02 C 668.89 337.02 668.61 333.63 668.27 331.92 L 657.87 281.84 C 657.12 278.14 656.45 274.46 655.58 270.68 Z M 561.17 248.22 L 636.05 248.22 C 636.08 249.51 636.73 252.00 636.99 253.28 L 640.13 268.38 L 592.85 268.38 C 592.96 269.68 593.50 271.60 593.75 272.76 L 596.45 285.90 L 639.17 285.90 C 639.85 288.81 640.46 291.97 641.03 294.84 C 641.41 296.76 642.77 302.39 642.77 303.90 L 600.29 303.90 L 602.43 314.72 C 602.84 316.78 602.69 318.06 603.65 318.06 L 649.25 318.06 L 650.15 322.68 C 650.49 324.37 650.83 325.89 651.15 327.43 C 651.49 329.06 651.79 330.67 652.11 332.24 C 652.40 333.71 652.97 335.54 653.09 337.02 L 579.41 337.02 L 574.95 314.84 C 573.47 307.34 571.83 299.96 570.31 292.60 L 562.31 253.80 C 562.00 252.33 561.30 249.81 561.17 248.22 M 242.93 251.82 L 302.21 251.82 L 304.85 264.06 L 258.05 264.06 L 259.39 270.15 C 259.93 272.28 260.32 274.04 260.79 276.20 L 263.57 288.54 L 302.69 288.54 C 303.59 288.54 303.37 289.32 303.84 291.22 L 306.05 300.78 L 266.45 300.78 C 266.77 302.18 271.97 323.52 271.97 325.02 L 319.01 325.02 L 321.63 336.37 C 321.80 337.11 322.03 337.50 321.17 337.50 L 263.09 337.50 C 262.15 337.50 261.92 334.59 261.46 332.65 L 257.71 316.47 C 255.99 309.68 254.44 301.82 252.77 295.01 C 250.19 284.46 247.92 273.44 245.33 262.86 C 244.88 261.03 244.55 259.27 244.08 257.38 Z M 377.81 251.82 L 390.05 251.82 C 391.47 257.94 392.86 263.91 394.27 270.15 L 398.45 288.54 L 433.01 288.54 L 424.61 251.82 L 437.09 251.82 C 437.12 253.28 447.72 298.27 448.03 299.68 L 453.55 323.67 C 454.58 327.71 455.27 331.64 456.29 335.58 C 456.88 337.87 457.56 337.50 451.73 337.50 C 449.25 337.50 446.77 337.50 444.29 337.50 C 444.17 336.04 443.61 334.41 443.31 332.96 L 440.11 319.11 C 439.32 315.97 438.78 313.06 438.00 309.94 C 437.26 307.00 436.60 303.82 435.89 300.78 L 401.33 300.78 C 402.02 303.76 402.85 306.92 403.47 309.92 L 409.73 337.50 L 397.97 337.50 C 397.03 337.50 396.80 334.59 396.34 332.65 C 395.90 330.79 395.45 329.05 395.07 327.20 C 394.72 325.49 394.26 323.72 393.84 321.95 C 393.42 320.19 393.08 318.37 392.59 316.47 C 390.87 309.68 389.32 301.82 387.65 295.01 C 387.55 294.59 377.81 253.33 377.81 251.82 M 310.85 280.86 C 310.85 276.37 311.79 271.47 313.04 268.17 C 314.28 264.89 316.50 261.67 318.84 259.08 C 319.16 258.72 319.40 258.62 319.76 258.33 C 321.27 257.14 320.14 257.71 322.99 255.80 C 333.66 248.65 351.18 249.30 362.13 254.77 C 365.51 256.46 368.85 258.55 371.74 261.01 C 372.62 261.76 373.83 263.00 374.69 263.58 C 373.79 265.28 369.28 271.15 368.93 272.46 C 366.78 271.02 366.36 268.79 359.49 265.57 C 352.88 262.48 343.86 262.07 336.68 264.45 C 333.97 265.34 331.53 266.76 329.75 268.55 C 327.40 270.91 327.86 270.54 326.35 273.07 C 319.97 283.74 326.78 304.31 333.07 312.64 C 333.79 313.60 334.33 314.32 335.05 315.21 C 335.72 316.05 336.64 316.84 337.43 317.64 C 342.25 322.49 350.39 326.22 357.17 326.22 C 362.51 326.22 366.83 326.08 371.81 323.58 C 374.21 322.37 378.54 319.64 378.77 316.86 C 379.85 317.15 387.06 324.06 388.85 325.26 C 387.96 329.09 381.31 334.37 376.75 336.19 C 370.38 338.74 363.17 339.02 356.37 338.05 C 353.54 337.64 351.20 337.07 348.80 336.27 C 343.58 334.52 337.79 331.66 333.59 328.19 C 332.70 327.46 331.87 326.96 331.06 326.16 L 327.59 322.67 C 325.33 320.21 324.34 319.22 322.27 316.24 C 321.58 315.24 321.16 314.42 320.50 313.45 C 317.90 309.60 314.54 301.69 313.39 297.03 C 312.77 294.48 312.04 292.05 311.64 289.43 C 311.24 286.86 310.85 283.62 310.85 280.86 M 108.77 332.22 L 108.77 321.90 L 119.33 321.90 L 119.33 329.58 C 119.33 330.68 122.60 331.29 123.41 331.50 C 136.61 334.98 150.31 331.73 160.55 322.80 C 163.15 320.55 162.87 320.72 164.99 318.36 C 168.21 314.77 171.11 308.94 172.58 304.35 C 175.54 295.11 174.62 284.51 170.53 275.97 C 169.44 273.70 166.53 268.93 164.75 267.11 C 162.20 264.50 163.35 265.23 159.72 262.30 C 150.50 254.86 138.40 251.76 126.11 254.04 C 125.16 254.22 123.59 254.62 122.66 254.91 C 118.55 256.18 119.57 254.24 119.57 264.54 L 108.53 264.54 L 108.53 254.46 C 108.53 248.88 113.82 247.21 118.09 245.78 C 133.15 240.76 149.38 243.22 162.43 251.91 C 168.70 256.09 173.74 261.55 177.55 268.00 C 177.99 268.75 178.21 269.28 178.65 270.01 C 179.08 270.71 179.37 271.25 179.71 272.08 C 182.04 277.70 183.02 280.46 183.90 286.60 C 184.49 290.68 184.48 297.11 183.67 301.04 C 183.49 301.94 183.37 302.82 183.17 303.66 C 181.58 310.40 179.69 314.91 175.78 320.75 C 174.94 322.01 174.13 322.96 173.19 324.16 C 171.95 325.76 168.71 329.06 167.12 330.33 C 161.96 334.47 161.74 334.63 155.89 337.58 C 145.17 342.98 129.33 343.88 117.56 339.75 C 114.37 338.64 108.77 336.13 108.77 332.22 M 196.37 325.02 L 219.65 325.02 C 216.83 312.90 214.08 300.76 211.20 288.59 C 209.13 279.83 207.04 269.66 204.86 261.08 L 202.85 251.82 L 215.09 251.82 L 229.87 315.75 C 230.23 317.31 230.57 318.75 230.93 320.21 C 231.22 321.39 231.89 323.79 231.89 325.02 L 254.93 325.02 C 255.89 325.02 256.40 329.21 256.85 331.02 L 258.29 337.50 L 199.01 337.50 L 197.63 331.44 C 197.29 329.84 196.37 326.41 196.37 325.02 M 102.29 301.98 L 102.29 301.26 L 82.85 301.26 L 82.85 284.46 C 85.54 284.46 95.83 284.33 98.03 284.63 C 98.99 284.76 102.29 285.21 102.29 283.98 L 102.29 266.46 L 119.33 266.46 L 119.33 284.46 L 137.57 284.46 C 137.57 285.10 137.66 285.54 137.69 285.99 L 137.57 301.26 L 119.33 301.26 L 119.33 319.26 C 119.33 319.81 119.16 319.98 118.61 319.98 C 116.59 319.98 103.66 320.10 102.47 319.81 C 102.18 319.74 102.14 320.33 102.06 318.30 C 101.89 313.62 102.29 307.32 102.29 301.98 M 135.89 305.10 C 137.61 305.10 140.15 304.81 141.79 304.52 C 143.75 304.17 145.18 303.62 146.46 302.70 C 153.16 297.90 152.70 283.03 141.72 281.27 C 139.94 280.98 137.86 280.62 135.65 280.62 L 135.65 269.10 C 142.45 269.10 146.27 268.52 152.37 271.57 C 166.87 278.81 170.25 301.02 156.36 311.41 C 150.95 315.45 145.68 316.64 139.00 316.61 C 137.54 316.61 137.09 316.86 135.89 316.86 Z"/></g></svg>
